<?xml version="1.0" encoding="UTF-8"?>
<svg width="135px" height="30px" viewBox="0 0 135 30" version="1.1" xmlns="http://www.w3.org/2000/svg" xmlns:xlink="http://www.w3.org/1999/xlink">
    <!-- Generator: Sketch 52.4 (67378) - http://www.bohemiancoding.com/sketch -->
    <title>logotip</title>
    <desc>Created with Sketch.</desc>
    <g id="Page-1" stroke="none" stroke-width="1" fill="none" fill-rule="evenodd">
        <g id="logotip">
            <g id="Group-2">
                <g id="worldwide" fill="#2A5885">
                    <path d="M5.13299389,5.34965377 C10.4364562,-0.0760081466 19.1615071,-0.1798778 24.587169,5.12358452 L23.0413442,5.14191446 C22.7052953,5.14802444 22.4425662,5.41686354 22.4425662,5.75291242 C22.4486762,6.08285132 22.7175153,6.35169043 23.0474542,6.35169043 L23.0535642,6.35169043 L26.0596741,6.31503055 C26.395723,6.30892057 26.6584521,6.04008147 26.6584521,5.70403259 L26.6217923,2.69792261 C26.6156823,2.36187373 26.3468432,2.09303462 26.0107943,2.0991446 C25.6747454,2.10525458 25.4120163,2.37409369 25.4120163,2.71014257 L25.4303462,4.25596741 C19.5281059,-1.51185336 10.0331976,-1.39576375 4.26537678,4.50647658 C2.26741344,6.55331976 0.898778004,9.10729124 0.318329939,11.8995519 C-0.249898167,14.6184929 -0.0543788187,17.4290835 0.880448065,20.0380448 C0.97209776,20.282444 1.20427699,20.4413035 1.44867617,20.4413035 C1.51588595,20.4413035 1.58309572,20.4290835 1.6503055,20.4046436 C1.96191446,20.294664 2.12688391,19.9463951 2.01690428,19.6286762 C0.226680244,14.6246029 1.41812627,9.1500611 5.13299389,5.34965377 Z" id="Path"></path>
                    <path d="M4.51588595,25.683666 C7.33258656,28.4331568 11.0413442,29.9423218 14.9700611,29.9423218 C15.0311609,29.9423218 15.0861507,29.9423218 15.1472505,29.9423218 C19.1492872,29.893442 22.8885947,28.2987373 25.6808554,25.4331568 C27.6849287,23.3863136 29.0474542,20.8262322 29.6279022,18.0339715 C30.1961303,15.3150305 30.000611,12.5044399 29.0657841,9.89547862 C28.9558045,9.58386965 28.6075356,9.4189002 28.2898167,9.52887984 C27.9782077,9.63885947 27.8132383,9.98712831 27.9232179,10.3048473 C29.7195519,15.3089206 28.5281059,20.7834623 24.8132383,24.5838697 C22.2409369,27.2111609 18.8071283,28.683666 15.1289206,28.7264358 C11.4568228,28.7692057 7.98635438,27.3761303 5.35906314,24.8099389 L6.90488798,24.791609 C7.24093686,24.785499 7.50366599,24.5166599 7.50366599,24.180611 C7.49755601,23.8506721 7.2287169,23.581833 6.898778,23.581833 L6.89266802,23.581833 L3.88655804,23.6184929 C3.72769857,23.6184929 3.57494908,23.6857026 3.45885947,23.8017923 C3.34887984,23.9178819 3.28778004,24.0706314 3.28778004,24.2294908 L3.32443992,27.2356008 C3.3305499,27.5655397 3.599389,27.8343788 3.9293279,27.8343788 L3.93543788,27.8343788 C4.27148676,27.8282688 4.53421589,27.5594297 4.53421589,27.2233809 L4.51588595,25.683666 Z" id="Path"></path>
                </g>
                <g id="globe" transform="translate(6.000000, 6.000000)">
                    <ellipse id="Oval" fill="#3498DB" cx="9.46895425" cy="9.5" rx="9.46895425" ry="9.5"></ellipse>
                    <g id="Group" transform="translate(0.000000, 0.622951)" fill="#E9EFF4">
                        <path d="M4.89730626,16.9342805 C4.88909563,16.9529351 4.87814813,16.9653714 4.8699375,16.984026 C4.93562252,17.0026805 4.99857066,17.0275533 5.06425568,17.0430987 L4.89730626,16.9342805 Z" id="Path"></path>
                        <path d="M4.27915625,3.49274498 L4.26015625,3.45404297 C4.4186875,3.43022634 4.429375,3.31828822 4.54990625,3.27720454 C4.6870625,3.23195296 4.64015625,3.28137245 4.7749375,3.27720454 C4.8841875,3.27244122 4.9506875,3.3522269 5.075375,3.29387618 C5.04509375,3.34746358 4.9958125,3.38437934 4.94653125,3.4206997 C4.8438125,3.49393581 4.73871875,3.56895817 4.61640625,3.59753812 C4.49409375,3.62552265 4.35040625,3.59575187 4.27915625,3.49274498 Z" id="Path"></path>
                        <path d="M6.17678125,11.9714628 C6.17440625,12.0554164 6.125125,12.1286525 6.082375,12.1995069 C5.89178125,12.5115047 5.776,12.872922 5.75046875,13.2391025 C5.7249375,13.5898023 5.740375,14.022074 5.43578125,14.1947445 C5.2618125,14.2917973 5.0171875,14.2745302 4.90140625,14.4382695 C4.8651875,14.487689 4.84796875,14.5502076 4.83075,14.6085584 C4.7559375,14.8818541 4.68053125,15.1551499 4.60571875,15.4284456 C4.5089375,15.4201098 4.410375,15.4093923 4.3141875,15.3986748 C4.4281875,15.4349952 4.50715625,15.5898032 4.438875,15.6957872 C4.329625,15.6380319 4.1859375,15.7065047 4.125375,15.8166566 C4.06778125,15.926213 4.07609375,16.0595861 4.10815625,16.1804555 C4.2073125,16.5377048 4.51190625,16.825886 4.87053125,16.9116258 C4.8081875,17.0301135 4.61759375,16.9783124 4.50121875,16.8991221 C3.6705625,16.3358589 3.0435625,15.4778651 2.757375,14.5138873 C2.6564375,14.173905 2.59171875,13.8124877 2.394,13.5201387 C2.2289375,13.2730412 1.9795625,13.0920349 1.8145,12.8449374 C1.5829375,12.4900697 1.53959375,12.0298135 1.27121875,11.705312 C1.121,11.5201378 0.88884375,11.292689 1.02184375,11.0944156 C1.07528125,11.0128437 1.18928125,10.9354397 1.14415625,10.8491044 C1.1293125,10.8211199 1.09903125,10.8038528 1.07528125,10.7800362 C0.98503125,10.6829835 1.047375,10.5305571 1.0925,10.4055198 C1.1673125,10.1881931 1.1673125,9.95598105 1.13525,9.72376898 C0.909625,9.52132768 0.7315,9.27006231 0.619875,8.98783533 C0.553375,8.81576023 0.46490625,8.6008152 0.28084375,8.59843354 C0.23334375,8.46506045 0.1840625,8.33168736 0.1365625,8.19831427 C0.11934375,8.24594752 0.0724375,8.2757183 0.02078125,8.28226787 C0.16328125,6.10245145 1.03965625,4.12448091 2.4035,2.59188121 C2.43378125,2.57878207 2.46346875,2.56151502 2.49375,2.54424797 C2.81734375,2.35490581 3.07503125,2.07089259 3.3879375,1.86428338 C3.4520625,1.82141346 3.52509375,1.78032978 3.60465625,1.7886656 C3.68184375,1.79521517 3.754875,1.87440545 3.72696875,1.94764156 C3.71628125,1.97800776 3.69075,2.00182438 3.664625,2.02087768 C3.29828125,2.33347085 2.89690625,2.6067666 2.47,2.83302452 C2.4189375,2.85862739 2.36490625,2.88899359 2.34175,2.94079474 C2.29840625,3.02891625 2.3714375,3.13847271 2.4640625,3.17062515 C2.55609375,3.20277759 2.65940625,3.1837243 2.7538125,3.16228934 C2.67425,3.27601371 2.6505,3.42903551 2.69146875,3.5624086 C2.77934375,3.57074442 2.80725,3.45047047 2.833375,3.36651688 C2.94025,3.03308416 3.47046875,2.8973294 3.43603125,2.54603421 C3.57971875,2.62105658 3.72578125,2.45314938 3.81365625,2.31560839 C3.90153125,2.17568573 4.096875,2.03814473 4.20434375,2.16080034 C4.21028125,2.22927313 4.21859375,2.29834134 4.225125,2.36740954 C4.4139375,2.3197763 4.605125,2.2703568 4.7939375,2.22272356 C4.68646875,2.29834134 4.65025,2.45969896 4.712,2.57580499 C4.77434375,2.69191103 4.92871875,2.75026176 5.05103125,2.70262851 C5.04925,2.80384916 4.959,2.88125318 4.8770625,2.94139016 C4.66925,3.09857987 4.446,3.25993749 4.20375,3.33734151 L4.2595625,3.45344755 C4.253625,3.45582921 4.24709375,3.45821088 4.2405625,3.45821088 C4.0861875,3.47309627 3.92290625,3.36175355 3.75784375,3.38318851 C3.65690625,3.39628766 3.5328125,3.39628766 3.474625,3.49929455 C3.4663125,3.51239369 3.43009375,3.69280461 3.455625,3.67791922 C3.545875,3.62611807 3.63553125,3.57431691 3.724,3.52311117 C3.7513125,3.59634729 3.75784375,3.67791922 3.743,3.75770491 C3.85225,3.74698743 3.96625,3.77020864 4.06303125,3.82855936 C3.96209375,4.0631531 3.702625,4.22034281 3.4473125,4.2006941 C3.4449375,4.12329007 3.44078125,4.04588605 3.43840625,3.96848202 C3.22821875,3.95121497 3.056625,4.13222131 2.95153125,4.31322764 C2.84465625,4.49602022 2.7633125,4.70501109 2.58696875,4.82111713 C2.48009375,4.89435324 2.348875,4.92233778 2.23309375,4.98247475 C2.1196875,5.04499339 2.01459375,5.16348108 2.03834375,5.2903046 C2.04903125,5.35044158 2.087625,5.40641064 2.08584375,5.46892928 C2.0793125,5.58503531 1.94453125,5.63921813 1.85428125,5.71424049 C1.69990625,5.84344567 1.6613125,6.08042107 1.49625,6.19414545 C1.3763125,6.27809904 1.2171875,6.2763128 1.07765625,6.31918272 C0.938125,6.36205264 0.79859375,6.5019753 0.855,6.63773005 C0.786125,6.66154667 0.70240625,6.60974552 0.695875,6.5365094 C0.44946875,7.02296393 0.28678125,7.55228837 0.22028125,8.09471196 C0.34259375,8.18045181 0.4666875,7.98456008 0.4904375,7.8363016 C0.51596875,7.68804313 0.6448125,7.49393765 0.76475,7.58205915 C0.73684375,7.79521793 0.7089375,8.00599504 0.681625,8.21915382 C0.67509375,8.26023749 0.6709375,8.30310741 0.69053125,8.33942776 C0.71428125,8.38467935 0.76534375,8.40373265 0.80453125,8.43588509 C0.91378125,8.53055616 0.8989375,8.69846336 0.90546875,8.84255393 C0.912,9.01879694 0.9701875,9.19087204 1.06221875,9.34151218 C1.0533125,9.31114598 1.047375,9.28137521 1.04084375,9.25100901 C1.20828125,9.27244397 1.38225,9.21826115 1.50871875,9.10632303 C1.57521875,9.04618605 1.63103125,8.96878203 1.71475,8.93841583 C1.80084375,8.90626339 1.89525,8.9294846 1.983125,8.95330122 C2.25565625,9.02832359 2.54540625,9.11227718 2.7276875,9.3272222 C2.81971875,9.43677867 2.87790625,9.57491508 2.98775,9.66482284 C3.23653125,9.87559995 3.6575,9.78271512 3.88490625,10.0173089 C4.0671875,10.206651 4.03334375,10.5120992 3.9840625,10.7722958 C3.859375,10.703823 3.69253125,10.8758981 3.7655625,10.9985537 C3.8320625,10.9253176 3.90925,10.8479136 4.00603125,10.8479136 C4.10459375,10.8455319 4.1906875,10.9812867 4.11765625,11.0438053 C4.28925,10.824097 4.709625,10.9146001 4.776125,11.1878959 C5.01659375,11.2051629 5.25884375,11.2218346 5.4993125,11.2414833 C5.453,11.5951601 6.191625,11.6159997 6.17678125,11.9714628 Z" id="Path"></path>
                        <path d="M4.714375,2.01670977 C4.62175,2.06255677 4.49409375,2.01075561 4.45965625,1.91310746 C4.424625,1.8154593 4.49053125,1.69458994 4.59146875,1.67136873 C4.655,1.65648334 4.74346875,1.66362833 4.7630625,1.6011097 C4.769,1.5820564 4.7654375,1.56121685 4.7654375,1.54156814 C4.7630625,1.42367585 4.86815625,1.3260277 4.9815625,1.29625692 C5.09496875,1.26708156 5.21490625,1.28970735 5.33009375,1.31233314 C5.3710625,1.39747757 5.3829375,1.49631655 5.36334375,1.58860597 C5.284375,1.59217846 5.20540625,1.59515554 5.1264375,1.59872803 C5.1335625,1.73031488 5.1205,1.89584041 4.99878125,1.94466448 C4.88953125,1.98812982 4.74703125,1.9071533 4.6561875,1.98098483" id="Path"></path>
                        <path d="M5.94403125,0.702627593 C6.1595625,0.599025282 6.34184375,0.435881415 6.55440625,0.326324949 C6.92015625,0.138173627 7.3470625,0.121501991 7.7579375,0.108402848 C8.69309375,0.079227485 9.62825,0.0500521218 10.5634062,0.0208767586 C10.3466875,0.139959874 10.1299687,0.259638404 9.91265625,0.37872152 C9.73571875,0.476369674 9.5344375,0.576399491 9.34028125,0.521025842 C9.336125,0.677620138 9.47803125,0.822901539 9.63478125,0.821710708 C9.250625,1.05987694 8.7174375,0.816351968 8.31190625,1.0164116 C8.14209375,1.1003652 8.0049375,1.25874574 7.81790625,1.28851652 C7.70984375,1.30578357 7.597625,1.27660821 7.49015625,1.30042483 C7.31025,1.33972226 7.19684375,1.51060653 7.06384375,1.63802546 C6.91065625,1.78509311 6.685625,1.88571834 6.48553125,1.8154593 C6.2854375,1.74520027 6.1809375,1.44689706 6.34125,1.30756982 C6.42021875,1.23909703 6.53303125,1.22778413 6.62625,1.17955547 C6.71946875,1.13192222 6.79309375,1.00390787 6.72303125,0.925908433 C6.69275,0.891969746 6.642875,0.878870603 6.61496875,0.842550253 C6.5846875,0.803252825 6.58765625,0.747283761 6.56271875,0.704413839 C6.46771875,0.537102063 6.2035,0.76216915 6.02359375,0.69488719" id="Path"></path>
                        <path d="M8.7839375,1.49393489 C8.91040625,1.46475953 9.02025,1.38973717 9.13840625,1.33495893 C9.2565625,1.2801807 9.39728125,1.24802826 9.5130625,1.30578357 C9.5475,1.39211883 9.44834375,1.47071369 9.3610625,1.5016753 C9.193625,1.56062144 9.0119375,1.57669766 8.83678125,1.54752229" id="Path"></path>
                        <path d="M16.4296563,2.44005024 C16.3952188,2.44421815 16.359,2.4424319 16.3221875,2.43350067 C16.1612813,2.39896657 16.0389688,2.27452471 15.9012188,2.18402154 C15.5835625,1.97324443 15.150125,1.94585531 14.8069375,2.11793042 C14.8882813,1.99944272 14.92925,1.85297048 14.9203438,1.70887992 L14.8710625,1.72614697 C14.3087813,1.39926382 13.6497188,1.05987694 13.036375,1.27958529 C12.8944688,1.33138644 12.7662188,1.40879047 12.6225313,1.45820996 C12.4699375,1.51179736 12.3007188,1.53382774 12.1700938,1.62849881 C12.0370938,1.72316989 11.9664375,1.93216076 12.0804375,2.04588513 C12.1772188,2.14293787 12.3315938,2.11673958 12.4669688,2.12983873 C12.5999688,2.14293787 12.7525625,2.27571554 12.6795313,2.39003533 C12.0917188,2.66571275 11.502125,2.94377182 10.9143125,3.22183089 C11.1844688,3.3099524 11.3631875,3.61718684 11.305,3.89703216 C11.1072813,3.93156626 10.9166875,3.81129231 10.7171875,3.79819317 C10.4274375,3.78330778 10.15075,4.03933648 10.1448125,4.32989928 C10.1365,4.62046208 10.4025,4.8889945 10.69225,4.8848266 C10.9089688,4.88244493 11.1215313,4.75145351 11.3317188,4.80682716 C11.3400313,4.60855377 11.4754063,4.44064658 11.6143438,4.29893767 C11.8845,4.02742817 12.2704375,3.78211695 12.6314375,3.91549004 C12.7495938,3.95835996 12.8505313,4.03814565 12.9490938,4.11733592 C13.1658125,4.28941102 13.3825313,4.46327237 13.5998438,4.63772913 C13.6687188,4.56687468 13.737,4.49542481 13.805875,4.42695202 C13.9240313,4.55198929 14.0421875,4.67643114 14.162125,4.80325466 C14.2220938,4.76217099 14.2844375,4.72346897 14.3444063,4.6823853 C14.3871563,4.79432343 14.4322813,4.90387989 14.475625,5.01581802 C14.4928438,4.89316241 14.5076875,4.77288847 14.5225313,4.65201911 C14.6644375,4.65618701 14.8146563,4.66035492 14.9429063,4.59605004 C15.07175,4.53353141 15.1661563,4.37872336 15.112125,4.24535027 C15.0842188,4.17449581 15.0177188,4.11852675 15.0046563,4.04290897 C14.97675,3.89226883 15.1910938,3.78926194 15.330625,3.85773473 C15.4677813,3.92442127 15.5366563,4.08161098 15.5948438,4.22570155 C15.6269063,4.07922932 15.6565938,3.93513875 15.68925,3.78866652 C15.8234375,4.14234337 16.017,4.47339443 16.2574688,4.76395723 C15.8175,4.68000364 15.3537813,4.7282323 14.9423125,4.89792574 C15.0735313,5.08309998 15.2985625,5.19265645 15.5241875,5.18372521 C15.625125,5.18134355 15.73675,5.15812234 15.8139375,5.22242723 C15.872125,5.27184672 15.8869688,5.35163241 15.8976563,5.42486852 C15.9320938,5.63147773 15.9665313,5.83570527 15.9985938,6.03993281 C15.7664375,5.84880441 15.4321563,5.87023937 15.1293438,5.86428522 C14.8265313,5.8559494 14.4726563,5.7719958 14.3610313,5.49036424 C14.2410938,5.62611899 14.1876563,5.81962905 14.2220938,6.00063538 C13.9085938,5.92561302 13.5481875,5.80533908 13.4579375,5.49512756 C13.2133125,5.58563073 12.9087188,5.42903643 12.8422188,5.17717564 C12.8184688,5.08905414 12.8119375,4.98128392 12.73475,4.93424609 C12.6878438,4.90626156 12.6272813,4.91042947 12.5714688,4.91697904 C12.1059688,4.97116185 11.64225,5.02296301 11.179125,5.07714583 C10.9261875,5.10751202 10.6643438,5.13787822 10.4410938,5.26232007 C10.2178438,5.38497568 10.0403125,5.62611899 10.0658437,5.88036144 C9.6389375,6.13460389 9.27675,6.50257071 9.032125,6.93543784 C8.9549375,7.06881093 8.8884375,7.22183273 8.91871875,7.37247287 C8.94009375,7.48857891 9.01728125,7.58741789 9.04103125,7.70173768 C9.082,7.89762941 8.970375,8.08697156 8.92346875,8.28048162 C8.79046875,8.83124103 9.20728125,9.349848 9.5938125,9.7666389 C9.77609375,9.96014896 9.986875,10.1709261 10.252875,10.1816436 C10.4179375,10.1881931 10.5746875,10.114957 10.7290625,10.0542246 C11.1708125,9.87976786 11.65175,9.79998217 12.1255625,9.81903547 C12.0180938,9.90298907 12.1297188,10.0857816 12.2633125,10.1137662 C12.3963125,10.1417507 12.54,10.0982854 12.6688438,10.143537 C12.96275,10.2489255 12.922375,10.6811972 12.789375,10.9634242 C12.855875,10.9503251 12.92475,10.9372259 12.9930313,10.9247222 C12.9568125,11.0193933 12.92,11.1140643 12.8837813,11.2063538 C13.2869375,11.2575595 13.4395313,11.7892656 13.3457188,12.1870032 C13.2536875,12.5853362 13.0179688,12.9509214 13.0114375,13.3599719 C13.0096563,13.5838482 13.0779375,13.8011748 13.1468125,14.0137382 C13.319,14.5537801 13.4905938,15.0938221 13.6627813,15.6356502 C14.1437188,15.6934055 14.4198125,15.0801275 14.8663125,14.8884037 C15.03375,14.8151676 15.230875,14.8002822 15.3620938,14.6752449 C15.4885625,14.554971 15.4475938,14.272744 15.2849063,14.272744 C15.5057813,14.2489274 15.6945938,14.0464861 15.701125,13.8226098 C15.7035,13.7600912 15.6945938,13.6975725 15.7029063,13.6356493 C15.71775,13.5475278 15.7735625,13.4701238 15.827,13.394506 C16.1678125,12.9038836 16.3886875,12.3418113 16.6095625,11.7868839 C16.6671563,11.6380301 16.7253438,11.4921532 16.7829375,11.3432993 C17.0014375,10.7901583 17.2181563,10.2393989 17.4366563,9.6862578 C17.5221563,9.46893111 17.60825,9.25398609 17.69375,9.03606399 C17.5755938,9.23195571 17.2668438,9.20635284 17.0905,9.05988061 C16.912375,8.9140038 16.81975,8.69191379 16.6802188,8.5091212 C16.5620625,8.35193149 16.4029375,8.21260425 16.347125,8.02088043 C16.3150625,7.91132397 16.321,7.79283627 16.302,7.67851648 C16.2586563,7.4308236 16.0959688,7.22480981 15.9843438,7.00093355 C15.8727188,6.77705729 15.8145313,6.48708991 15.9712813,6.29060277 C16.4225313,7.08012382 16.8328125,7.89286608 17.2039063,8.72585247 C17.244875,8.59664729 17.3392813,8.48470917 17.4592188,8.42219053 C17.5470938,8.37455728 17.6456563,8.35550399 17.7382813,8.31680197 C17.9829063,8.20903175 18.152125,7.94883515 18.152125,7.68208897 C18.14975,7.41534279 17.9805313,7.15514619 17.7335313,7.04975763 C17.6112188,6.99795647 17.4716875,6.98128484 17.3559063,6.90983497 C17.240125,6.84136218 17.1564063,6.68417246 17.2294375,6.56985267 C17.2977188,6.46208246 17.463375,6.46446412 17.5767813,6.52460109 C17.6907813,6.58711973 17.7745,6.69250828 17.881375,6.76336274 C17.9585625,6.81516389 18.0488125,6.84910258 18.1325313,6.89673583 C18.5855625,7.15693243 18.6971875,7.74877551 18.7921875,8.26500082 C18.8438438,8.54246448 18.9020313,8.81814189 18.9709063,9.08905597 C18.9732813,9.03070525 18.9726875,8.97056827 18.9726875,8.91281296 C18.9703125,6.41087672 18.0054688,4.13698463 16.4296563,2.44005024 Z M17.2983125,5.56598201 C17.2359687,5.5618141 17.178375,5.52073043 17.1285,5.48202842 C17.0471562,5.41772354 16.9652187,5.34210576 16.9414687,5.24088511 C16.9135625,5.12061116 16.9711562,4.98247475 16.9070312,4.87529995 C16.87675,4.82349879 16.8233125,4.79134635 16.7781875,4.755026 C16.6600312,4.66035492 16.5739375,4.52460017 16.541875,4.37872336 C16.5139687,4.24951818 16.5543437,4.07744307 16.6855625,4.05600811 C16.7479062,4.04529063 16.8161875,4.07982474 16.8440937,4.13758005 L16.7562187,4.18521329 C16.9040625,4.20248035 16.9729375,4.4263566 16.8595312,4.52281393 C16.8446875,4.53769931 16.8250937,4.55079846 16.8250937,4.57223342 C16.8250937,4.58533256 16.8334062,4.59783629 16.8446875,4.60676752 C16.9367187,4.70798817 17.0744687,4.74430852 17.1944062,4.8086134 C17.3143437,4.87113204 17.4325,4.98723807 17.4135,5.12061116 C17.3749062,5.13549655 17.3386875,5.1485957 17.3000937,5.16348108 C17.259125,5.20456476 17.2917812,5.27780088 17.3345312,5.31828913 C17.3772812,5.35877739 17.4330937,5.39986107 17.4354687,5.45999804 C17.4354687,5.52489834 17.3624375,5.57014992 17.2983125,5.56598201 Z" id="Shape" fill-rule="nonzero"></path>
                        <path d="M17.3600625,12.1858124 L17.2050937,12.2959643 C17.259125,12.4864972 17.1510625,12.7097781 16.9675937,12.784205 C16.8708125,12.8235025 16.7419687,12.8407695 16.7093125,12.9402039 C16.682,13.0247529 16.7473125,13.1104928 16.7562187,13.1986143 C16.7704687,13.3450865 16.6339062,13.454643 16.5353437,13.563604 C16.4367812,13.6725651 16.3845312,13.877388 16.51575,13.9428837 C16.5460312,13.9583646 16.5810625,13.9613416 16.6149062,13.9643187 C16.7574062,13.9768224 16.9135625,13.9809903 17.0299375,13.8976322 C17.363625,13.6588705 17.0465625,13.0110584 17.3760937,12.7657472 C17.423,12.7312131 17.4817812,12.7062056 17.5073125,12.653809 C17.5850937,12.4995964 17.2983125,12.3465746 17.3600625,12.1858124 Z" id="Path"></path>
                    </g>
                </g>
            </g>
            <text id="teaming" fill="#2A5885" font-family="Avenir-Book, Avenir" font-size="14" font-weight="normal">
                <tspan x="84" y="19">teaming</tspan>
            </text>
            <text id="World" fill="#2A5885" font-family="Avenir-Heavy, Avenir" font-size="16" font-weight="600">
                <tspan x="36" y="19">World</tspan>
            </text>
        </g>
    </g>
</svg>